{"title":"Shrek.Forever.After.2010.TELESYNC.MP4.AAC.FEEL-FREE","uid":5631669,"size":711388311,"categoryP":"video","categoryS":"movies","magnet":"?xt=urn:btih:f128d26eed3413780fa6bb85bd571bb95035554b&amp;dn=Shrek.Forever.After.2010.TELESYNC.MP4.AAC.FEEL-FREE&amp;tr=udp%3A%2F%2Ftracker.openbittorrent.com%3A80&amp;tr=udp%3A%2F%2Fopen.demonii.com%3A1337&amp;tr=udp%3A%2F%2Ftracker.coppersurfer.tk%3A6969&amp;tr=udp%3A%2F%2Fexodus.desync.com%3A6969","seeders":2,"leechers":0,"uploader":"hiest","files":7,"time":1276708626,"description":"Genre:Animation | Adventure | Comedy | Family | Fantasy\nLanguage:English\nIMDb:http://www.imdb.com/title/tt0892791/ \nEncoder: Tony2\n\n.............................................\nGeneral\nComplete name : Shrek.Forever.After.2010.TELESYNC.MP4.AAC.FEEL-FREE\nFormat : MPEG-4\nFormat profile : Base Media\nCodec ID : isom\nFile size : 678 MiB\nDuration : 1h 21mn\nOverall bit rate : 1 164 Kbps\n.............................................\nVideo\nID : 1\nFormat : MPEG-4 Visual\nFormat profile : Simple@L1\nFormat settings, BVOP : No\nFormat settings, QPel : No\nFormat settings, GMC : No warppoints\nFormat settings, Matrix : Default (H.263)\nCodec ID : 20\nDuration : 1h 21mn\nBit rate mode : Variable\nBit rate : 1 031 Kbps\nWidth : 704 pixels\nHeight : 304 pixels\nDisplay aspect ratio : 2.35:1\nFrame rate mode : Constant\nFrame rate : 25.000 fps\nResolution : 24 bits\nColorimetry : 4:2:0\nScan type : Progressive\nBits/(Pixel*Frame) : 0.193\nStream size : 600 MiB (89%)\nWriting library : Lavc51.40.4\n..............................................\nAudio\nID : 2\nFormat : AAC\nFormat/Info : Advanced Audio Codec\nFormat version : Version 4\nFormat profile : LC\nFormat settings, SBR : No\nCodec ID : 40\nDuration : 1h 21mn\nBit rate mode : Variable\nBit rate : 128 Kbps\nChannel(s) : 2 channels\nChannel positions : L R\nSampling rate : 48.0 KHz\nResolution : 16 bits\nStream size : 74.5 MiB (11%)\n..............................................\nPlot: \nRumpelstiltskin tricks a mid-life crisis burdened Shrek into allowing himself to be erased from existence and cast in a dark alternate timeline where Rumpel rules supreme\n...................................................\nScreenshots: &lt;a href=&quot;\nhttp://postimg.com/image/17000/16425.jpg&quot; rel=&quot;nofollow&quot; target=&quot;_NEW&quot;&gt;\nhttp://postimg.com/image/17000/16425.jpg&lt;/a&gt;\n.........................................................","torrent":{"xt":"urn:btih:f128d26eed3413780fa6bb85bd571bb95035554b","amp;dn":"Shrek.Forever.After.2010.TELESYNC.MP4.AAC.FEEL-FREE","amp;tr":["udp%3A%2F%2Ftracker.openbittorrent.com%3A80","udp%3A%2F%2Fopen.demonii.com%3A1337","udp%3A%2F%2Ftracker.coppersurfer.tk%3A6969","udp%3A%2F%2Fexodus.desync.com%3A6969"],"infoHash":"f128d26eed3413780fa6bb85bd571bb95035554b","infoHashBuffer":{"type":"Buffer","data":[241,40,210,110,237,52,19,120,15,166,187,133,189,87,27,185,80,53,85,75]},"announce":[],"urlList":[]}}